<?xml version="1.0" encoding="UTF-8"?>
<svg xmlns="http://www.w3.org/2000/svg" xmlns:xlink="http://www.w3.org/1999/xlink" width="160pt" height="81pt" viewBox="0 0 160 81" version="1.1">
<g id="surface1">
<path style=" stroke:none;fill-rule:nonzero;fill:rgb(100%,100%,100%);fill-opacity:1;" d="M 1.425781 77.339844 L 1.425781 76.957031 C 5.585938 74.902344 8.226562 72.15625 9.34375 68.707031 C 9.90625 66.976562 10.183594 63.832031 10.183594 59.273438 C 8.773438 59.273438 7.371094 59.632812 5.984375 60.359375 C 5.667969 60.546875 4.625 61.230469 2.867188 62.410156 C 1.773438 63.148438 0.855469 63.515625 0.109375 63.515625 C 0.109375 61.355469 1.109375 59.628906 3.105469 58.328125 C 4.09375 57.667969 7.171875 56.601562 12.34375 55.128906 C 17.515625 53.664062 20.835938 52.933594 22.300781 52.933594 C 22.300781 53.175781 22.101562 53.511719 21.699219 53.941406 C 21.300781 54.371094 21.101562 54.703125 21.101562 54.945312 C 21.898438 54.945312 23.058594 54.851562 24.578125 54.664062 C 26.070312 54.476562 27.21875 54.382812 28.019531 54.382812 C 30.363281 54.382812 32.308594 54.75 33.855469 55.488281 C 35.402344 56.226562 36.175781 57.1875 36.175781 58.367188 C 36.175781 59.640625 35.390625 60.742188 33.816406 61.664062 C 33.042969 62.109375 31.203125 62.886719 28.296875 64 C 27.976562 64.105469 27.792969 64.199219 27.738281 64.28125 L 29.417969 65.972656 L 42.292969 74.703125 L 42.292969 75.609375 C 35.683594 75.609375 29.335938 73.617188 23.261719 69.632812 C 22.941406 69.40625 22.378906 68.996094 21.582031 68.40625 C 20.753906 67.816406 20.007812 67.378906 19.339844 67.097656 L 18.5 67.378906 L 18.5 71.886719 C 18.5 72.421875 15.847656 73.480469 10.542969 75.066406 C 5.453125 76.582031 2.414062 77.339844 1.425781 77.339844 Z M 20.941406 56.917969 C 19.875 56.917969 19.339844 57.402344 19.339844 58.367188 L 19.339844 64.625 C 21.421875 64.625 23.113281 64.066406 24.417969 62.953125 C 25.539062 62.015625 26.097656 60.980469 26.097656 59.855469 C 26.097656 59.105469 25.605469 58.425781 24.621094 57.824219 C 23.632812 57.21875 22.40625 56.917969 20.941406 56.917969 Z M 45.132812 69.089844 C 45.132812 67.160156 46.132812 65.414062 48.132812 63.859375 C 50.128906 62.316406 52.875 61.148438 56.367188 60.359375 C 57.859375 60.023438 59.898438 59.828125 62.484375 59.773438 C 65.632812 59.695312 67.699219 59.605469 68.683594 59.511719 L 72.042969 58.949219 C 72.175781 58.949219 72.296875 58.941406 72.402344 58.929688 L 72.722656 58.929688 C 72.722656 59.277344 72.335938 59.675781 71.5625 60.117188 C 70.550781 60.652344 69.964844 61.015625 69.804688 61.203125 C 69.136719 61.914062 68.765625 62.457031 68.683594 62.832031 C 68.65625 62.992188 68.644531 63.542969 68.644531 64.484375 L 68.644531 66.191406 C 68.644531 67.210938 69.125 67.722656 70.082031 67.722656 C 70.164062 67.722656 70.257812 67.707031 70.363281 67.679688 L 73.164062 66.554688 C 73.296875 66.542969 73.617188 66.515625 74.121094 66.472656 C 74.121094 67.640625 73.324219 69.101562 71.722656 70.859375 C 69.855469 72.914062 67.910156 73.9375 65.886719 73.9375 C 65.378906 73.9375 65.003906 73.917969 64.765625 73.878906 C 62.019531 72.925781 59.96875 71.421875 58.609375 69.371094 C 57.621094 70.363281 56.566406 71.328125 55.449219 72.269531 C 53.957031 73.554688 52.210938 74.199219 50.210938 74.199219 C 46.824219 74.199219 45.132812 72.496094 45.132812 69.089844 Z M 52.96875 66.875 C 52.96875 68.015625 53.621094 68.585938 54.929688 68.585938 C 56.046875 68.585938 57.261719 67.835938 58.566406 66.332031 C 59.765625 64.964844 60.367188 63.890625 60.367188 63.113281 C 57.328125 63.113281 55.34375 63.363281 54.410156 63.859375 C 53.449219 64.339844 52.96875 65.347656 52.96875 66.875 Z M 76.320312 79.710938 C 76.320312 79.484375 76.359375 79.34375 76.441406 79.289062 C 78.039062 77.921875 80.464844 76.511719 83.71875 75.066406 L 84.277344 75.042969 C 84.570312 75.042969 84.972656 75.285156 85.476562 75.769531 C 86.277344 76.507812 86.863281 76.976562 87.238281 77.175781 C 88.117188 77.660156 89.277344 77.902344 90.714844 77.902344 C 92.609375 77.902344 94.023438 77.359375 94.953125 76.273438 C 95.675781 75.46875 96.035156 74.507812 96.035156 73.394531 C 96.035156 72.253906 95.847656 71.027344 95.472656 69.714844 C 95.421875 69.714844 95.382812 69.707031 95.355469 69.691406 L 95.195312 69.691406 C 94.554688 69.691406 93.6875 70.054688 92.59375 70.78125 C 90.703125 72.039062 89.664062 72.722656 89.476562 72.832031 C 88.117188 73.570312 86.851562 73.9375 85.679688 73.9375 C 80.960938 73.9375 78.601562 72.34375 78.601562 69.148438 C 78.601562 67.042969 79.761719 65.140625 82.078125 63.4375 C 84.476562 61.652344 87.636719 60.457031 91.554688 59.855469 C 93.234375 59.867188 95.007812 59.875 96.875 59.875 C 98.765625 59.875 100.726562 59.867188 102.753906 59.855469 L 106.109375 59.574219 C 106.03125 59.574219 106.246094 59.566406 106.75 59.554688 C 106.75 60.222656 106.351562 60.699219 105.550781 60.980469 C 104.75 62.121094 104.351562 63.441406 104.351562 64.945312 C 104.351562 65.683594 104.472656 66.789062 104.710938 68.265625 C 104.925781 69.738281 105.03125 70.839844 105.03125 71.5625 C 105.03125 73.578125 104.832031 75.023438 104.429688 75.910156 C 104.273438 76.203125 104.003906 76.433594 103.632812 76.59375 L 102.191406 77.035156 C 99.046875 78.335938 96.207031 79.28125 93.675781 79.875 C 90.449219 80.625 87.128906 81 83.71875 81 C 81.507812 81 80.066406 80.972656 79.398438 80.917969 C 77.347656 80.757812 76.320312 80.355469 76.320312 79.710938 Z M 85.878906 66.332031 C 85.878906 66.976562 86.066406 67.5625 86.4375 68.082031 C 86.972656 68.808594 87.742188 69.171875 88.757812 69.171875 C 89.796875 69.171875 91.117188 68.433594 92.714844 66.957031 C 94.207031 65.589844 94.953125 64.628906 94.953125 64.082031 C 94.953125 64.121094 94.941406 64.027344 94.914062 63.796875 L 94.636719 63.71875 C 93.515625 63.382812 92.410156 63.214844 91.316406 63.214844 C 87.691406 63.214844 85.878906 64.253906 85.878906 66.332031 Z M 113.386719 71.765625 L 113.386719 65.066406 C 112.882812 65.066406 112.160156 65.167969 111.230469 65.367188 C 110.269531 65.554688 109.550781 65.648438 109.070312 65.648438 C 109.070312 64.46875 111.042969 63.242188 114.988281 61.96875 C 118.640625 60.789062 121.679688 60.195312 124.105469 60.195312 C 124.105469 60.585938 123.519531 61.4375 122.34375 62.753906 L 122.34375 63.796875 C 122.34375 63.8125 122.320312 64.054688 122.265625 64.523438 C 122.265625 64.644531 122.265625 64.757812 122.265625 64.863281 C 122.265625 66.03125 122.292969 66.734375 122.34375 66.976562 C 122.453125 67.726562 122.636719 68.105469 122.90625 68.105469 L 124.023438 68.105469 L 130.183594 66.132812 C 130.234375 66.117188 130.328125 66.113281 130.460938 66.113281 C 131.046875 66.113281 131.34375 66.554688 131.34375 67.441406 C 131.34375 68.527344 129.582031 69.902344 126.0625 71.5625 C 122.519531 73.226562 119.652344 74.058594 117.46875 74.058594 C 114.746094 74.058594 113.386719 73.292969 113.386719 71.765625 Z M 117.347656 55.992188 L 117.347656 55.429688 C 117.347656 55.296875 117.332031 55.167969 117.308594 55.046875 L 117.308594 54.867188 C 117.226562 54.8125 116.867188 54.691406 116.226562 54.503906 C 115.773438 54.371094 115.546875 54.207031 115.546875 54.019531 C 115.546875 54.0625 115.574219 53.96875 115.628906 53.738281 L 119.984375 52.191406 C 122.066406 51.519531 123.796875 51.183594 125.183594 51.183594 C 125.902344 51.183594 126.265625 51.425781 126.265625 51.910156 C 126.265625 53.636719 124.023438 55.75 119.546875 58.246094 C 117.519531 59.371094 116.402344 59.9375 116.1875 59.9375 L 114.867188 59.9375 C 114.867188 59.546875 115.28125 58.902344 116.105469 58.003906 C 116.933594 57.117188 117.347656 56.449219 117.347656 55.992188 Z M 134.699219 64.484375 C 134.699219 63.558594 134.460938 62.195312 133.980469 60.398438 C 133.5 58.585938 133.261719 57.226562 133.261719 56.3125 C 133.261719 55.46875 134.941406 54.449219 138.300781 53.257812 C 141.472656 52.128906 143.925781 51.566406 145.65625 51.566406 C 145.65625 52.15625 145.285156 52.980469 144.539062 54.039062 C 143.765625 55.101562 143.363281 55.90625 143.335938 56.457031 C 143.257812 57.167969 143.3125 58.058594 143.496094 59.132812 C 143.710938 60.457031 143.816406 61.355469 143.816406 61.828125 C 144.539062 61.828125 145.964844 61.550781 148.097656 61.003906 C 150.253906 60.4375 151.839844 60.15625 152.855469 60.15625 C 157.546875 60.15625 159.890625 61.597656 159.890625 64.484375 C 159.890625 66.976562 158.304688 69.164062 155.132812 71.042969 C 151.773438 73.011719 147.65625 74 142.777344 74 C 142.324219 74 141.660156 73.945312 140.777344 73.835938 C 139.898438 73.730469 139.234375 73.675781 138.78125 73.675781 C 138.03125 73.675781 136.953125 73.835938 135.539062 74.160156 C 134.128906 74.46875 133.046875 74.621094 132.300781 74.621094 C 132.300781 74.207031 132.527344 73.597656 132.980469 72.792969 C 133.355469 72.148438 133.726562 71.515625 134.101562 70.902344 C 134.5 69.625 134.699219 67.488281 134.699219 64.484375 Z M 147.816406 63.820312 C 146.9375 63.820312 146.015625 64.007812 145.058594 64.382812 C 144.097656 64.742188 143.617188 65.132812 143.617188 65.546875 L 143.617188 70.335938 C 144.042969 70.445312 144.605469 70.539062 145.296875 70.617188 L 145.855469 70.617188 C 147.828125 70.617188 149.390625 70.167969 150.535156 69.269531 C 151.546875 68.492188 152.054688 67.582031 152.054688 66.535156 C 152.054688 65.796875 151.722656 65.1875 151.054688 64.703125 C 150.253906 64.113281 149.175781 63.820312 147.816406 63.820312 Z M 147.816406 63.820312 "/>
<path style=" stroke:none;fill-rule:nonzero;fill:rgb(100%,100%,100%);fill-opacity:1;" d="M 74.820312 45.214844 C 74.820312 45.214844 72.25 41.332031 71.953125 40.039062 C 71.65625 38.746094 67.699219 38.945312 66.710938 38.945312 C 65.824219 38.945312 58.011719 39.792969 53.664062 39.792969 C 49.410156 39.792969 45.953125 38.796875 46.445312 37.253906 C 46.941406 35.710938 48.226562 33.375 46.445312 32.878906 C 44.667969 32.332031 44.074219 31.433594 46.445312 30.886719 C 46.445312 30.886719 44.964844 30.640625 43.875 30.191406 C 42.789062 29.742188 43.679688 29.246094 44.667969 28.550781 C 45.554688 27.855469 45.160156 27.109375 40.414062 25.914062 C 35.671875 24.769531 41.207031 22.582031 42.097656 22.234375 C 42.984375 21.835938 48.027344 19.296875 48.027344 16.664062 C 48.027344 14.027344 45.851562 8.40625 59.988281 4.078125 C 74.125 -0.25 90.636719 -1.144531 107.640625 4.078125 C 124.644531 9.300781 127.90625 20.292969 113.769531 27.753906 C 103.488281 33.773438 109.023438 36.707031 114.261719 43.871094 Z M 99.039062 31.085938 C 99.039062 31.085938 98.347656 27.953125 104.773438 26.164062 C 111.199219 24.371094 111.199219 21.636719 111.199219 21.636719 C 111.199219 21.636719 117.425781 18.402344 112.582031 15.617188 C 112.582031 15.617188 113.175781 9.597656 106.652344 9.597656 C 106.652344 9.597656 103.785156 5.421875 94.390625 6.367188 C 94.390625 6.367188 86.285156 3.332031 82.035156 6.21875 C 82.035156 6.21875 73.238281 4.175781 70.074219 7.460938 C 70.074219 7.460938 60.582031 6.863281 59.59375 11.289062 C 59.59375 11.289062 54.15625 11.988281 53.664062 15.964844 C 53.167969 19.945312 61.273438 20.890625 65.128906 20.742188 C 68.984375 20.640625 70.566406 20.242188 70.566406 20.242188 C 70.566406 20.242188 73.929688 21.785156 80.355469 20.742188 C 80.355469 20.742188 88.660156 21.933594 88.660156 24.324219 L 88.660156 31.039062 L 92.613281 31.039062 C 92.613281 31.039062 92.515625 27.207031 92.515625 25.21875 C 92.515625 23.226562 95.28125 22.582031 96.566406 21.984375 C 96.863281 21.835938 99.238281 21.089844 100.125 19.25 C 101.015625 17.410156 101.113281 15.667969 97.359375 14.921875 C 93.601562 14.175781 89.945312 13.925781 88.855469 14.375 C 87.769531 14.820312 86.089844 16.265625 88.558594 18.453125 L 86.78125 19.148438 C 86.78125 19.148438 85.199219 18.003906 85 16.664062 C 85 16.664062 81.539062 16.3125 79.5625 17.457031 L 77.683594 16.910156 C 77.683594 16.910156 79.761719 15.21875 85.296875 15.46875 C 85.296875 15.46875 85.691406 14.425781 87.375 13.578125 C 87.375 13.578125 86.1875 11.738281 83.121094 12.035156 C 80.058594 12.335938 81.34375 12.582031 77.488281 12.734375 C 77.488281 12.734375 76.597656 15.121094 71.0625 16.164062 C 71.0625 16.164062 69.183594 17.210938 64.933594 16.863281 C 61.769531 16.710938 61.867188 18.003906 61.867188 18.003906 L 59.59375 17.707031 C 59.59375 17.707031 60.1875 16.414062 61.96875 15.917969 C 63.746094 15.417969 66.8125 16.117188 68.886719 15.566406 C 68.886719 15.566406 67.699219 13.925781 64.636719 13.828125 L 64.539062 12.683594 C 64.539062 12.683594 68.589844 12.582031 70.964844 14.921875 C 70.964844 14.921875 74.226562 14.472656 75.410156 12.335938 C 75.410156 12.335938 74.226562 11.289062 71.851562 10.792969 L 72.542969 9.699219 C 72.542969 9.699219 75.511719 10.144531 77.09375 11.539062 C 77.09375 11.539062 78.773438 11.539062 80.550781 11.191406 C 82.332031 10.84375 83.714844 10.941406 83.714844 10.941406 C 83.714844 10.941406 85 10.046875 85.101562 8.953125 L 87.570312 9.152344 C 87.570312 9.152344 87.472656 10.195312 86.1875 11.140625 C 86.1875 11.140625 88.757812 11.6875 89.449219 13.03125 C 89.449219 13.03125 91.425781 12.980469 93.007812 13.128906 C 93.007812 13.128906 92.515625 11.488281 95.382812 10.695312 L 96.667969 11.6875 C 96.667969 11.6875 94.886719 12.433594 95.578125 13.378906 C 95.578125 13.378906 100.917969 13.828125 102.5 15.867188 C 102.5 15.867188 104.773438 15.917969 106.949219 14.523438 L 108.925781 15.21875 C 108.925781 15.21875 106.949219 16.613281 102.992188 17.109375 C 102.992188 17.109375 103.191406 18.800781 101.808594 20.492188 C 101.808594 20.492188 105.5625 21.289062 105.957031 22.878906 L 103.683594 23.226562 C 102.597656 21.785156 100.621094 21.6875 100.621094 21.6875 C 100.621094 21.6875 98.148438 22.878906 96.371094 23.578125 C 94.589844 24.273438 94.789062 25.816406 94.789062 25.816406 L 94.6875 30.988281 L 99.039062 30.988281 Z M 99.039062 31.085938 "/>
</g>
</svg>
